<?xml version="1.0" encoding="utf-8"?>
<!-- Generator: Adobe Illustrator 26.4.1, SVG Export Plug-In . SVG Version: 6.00 Build 0)  -->
<svg version="1.0" id="katman_1" xmlns="http://www.w3.org/2000/svg" xmlns:xlink="http://www.w3.org/1999/xlink" x="0px" y="0px"
	 viewBox="0 0 841.89 595.28" style="enable-background:new 0 0 841.89 595.28;" xml:space="preserve">
<style type="text/css">
	.st0{fill:#010202;}
	.st1{fill:#42AB9E;}
</style>
<g id="expatrio-logo-copy">
	<path id="path-1" class="st0" d="M357.25,268.78c-15.53,0-24.12,12.58-24.12,27.37c0,14.8,8.59,27.37,24.12,27.37
		c15.16,0,25.15-12.58,25.15-27.37C382.4,281.36,372.41,268.78,357.25,268.78z M331.73,327.6v50.28c0,2.57-2.08,4.65-4.65,4.65
		h-5.43h-5.43c-2.57,0-4.65-2.08-4.65-4.65V257.71c0-2.57,2.08-4.65,4.65-4.65h10.86c2.57,0,4.65,2.08,4.65,4.65v7
		c5.36-8.69,16.64-13.87,26.63-13.87c26.26,0,44.2,20.9,44.2,45.32c0,24.41-17.94,45.32-44.2,45.32
		C348.37,341.47,337.09,336.29,331.73,327.6z M451.04,323.53c15.53,0,26.58-12.58,26.58-27.37c0-14.8-11.05-27.37-26.58-27.37
		c-15.16,0-25.15,12.58-25.15,27.37C425.89,310.95,435.87,323.53,451.04,323.53z M479.54,264.71v-7c0-2.57,2.08-4.65,4.65-4.65
		h10.86c2.57,0,4.65,2.08,4.65,4.65v76.9c0,2.57-2.08,4.65-4.65,4.65h-10.86c-2.57,0-4.65-2.08-4.65-4.65v-7
		c-5.36,8.69-16.64,13.87-26.63,13.87c-26.26,0-44.2-20.9-44.2-45.32c0-24.41,17.94-45.32,44.2-45.32
		C462.89,250.84,474.17,256.02,479.54,264.71z M507.22,265.24v-7.54c0-2.57,2.08-4.65,4.65-4.65h9.96v-21.43
		c0-2.57,2.08-4.65,4.65-4.65h10.86c2.57,0,4.65,2.08,4.65,4.65v21.43h15.14c2.57,0,4.65,2.08,4.65,4.65v7.54
		c0,2.57-2.08,4.65-4.65,4.65h-15.14v35.51c0,14.98,4.62,16.83,12.58,16.83c1.84,0,3.68,0,5.52,0l0,0c2.57,0,4.65,2.08,4.65,4.65
		v8.83c0,2.57-2.08,4.65-4.65,4.65c-3.44,0-6.89,0-10.33,0c-9.8,0-27.93-1.29-27.93-30.33v-40.14h-9.96
		C509.3,269.89,507.22,267.81,507.22,265.24z M628.11,257.32v9.4c0,2.57-2.08,4.65-4.65,4.65c-0.15,0-0.31-0.01-0.46-0.02
		c-1.04-0.1-1.99-0.15-2.85-0.15c-17.2,0-26.63,9.8-26.63,31.26v32.53c0,2.57-2.08,4.65-4.65,4.65h-10.86
		c-2.57,0-4.65-2.08-4.65-4.65v-76.9c0-2.57,2.08-4.65,4.65-4.65h10.86c2.57,0,4.65,2.08,4.65,4.65v9.22
		c3.88-7.95,15.16-14.98,26.63-14.98c1.2,0,2.57,0.14,4.13,0.42l0,0C626.5,253.14,628.11,255.07,628.11,257.32z M636.56,334.6v-76.9
		c0-2.57,2.08-4.65,4.65-4.65h10.86c2.57,0,4.65,2.08,4.65,4.65v76.9c0,2.57-2.08,4.65-4.65,4.65H641.2
		C638.64,339.25,636.56,337.17,636.56,334.6z M631.75,227.02c0-8.32,6.66-14.98,14.79-14.98c8.32,0,14.98,6.66,14.98,14.98
		c0,8.14-6.66,14.8-14.98,14.8C638.4,241.82,631.75,235.16,631.75,227.02z M712.3,323.53c15.53,0,25.52-12.58,25.52-27.37
		c0-14.8-9.99-27.37-25.52-27.37c-15.16,0-25.15,12.58-25.15,27.37C687.14,310.95,697.13,323.53,712.3,323.53z M712.3,341.47
		c-27.37,0-45.31-20.9-45.31-45.32c0-24.41,17.94-45.32,45.31-45.32c27.74,0,45.68,20.9,45.68,45.32
		C757.98,320.57,740.04,341.47,712.3,341.47z"/>
	<path id="Combined-Shape" class="st1" d="M181.61,228.96H294.6c3.8,0,6.88,3.08,6.88,6.88v119.74c0,3.8-3.08,6.88-6.88,6.88H181.61
		c-3.8,0-6.88-3.08-6.88-6.88V235.84C174.73,232.04,177.81,228.96,181.61,228.96z M201.41,251.1c-0.41,0-0.8,0.11-1.15,0.32
		c-1.06,0.64-1.4,2.01-0.76,3.06l24.84,41.29l-24.85,38.89c-0.23,0.36-0.35,0.78-0.35,1.2c0,1.23,1,2.23,2.23,2.23h22.3
		c7.05-13.44,13.1-24.69,15.28-29.22h0.17c2.69,5.04,7.56,14.44,15.28,29.22h23.21c0.41,0,0.82-0.11,1.17-0.33
		c1.05-0.65,1.38-2.02,0.73-3.07l-25.95-42.11l25.45-37.42c0.29-0.43,0.45-0.94,0.45-1.46c0-1.44-1.17-2.6-2.6-2.6h-21.79
		c-7.05,12.43-12.43,22-15.45,27.38h-0.17c-2.52-4.53-6.21-10.92-15.28-27.38H201.41z"/>
	<path id="path-2" class="st0" d="M147.81,312.8h14.11c1.44,0,2.61,1.17,2.61,2.61c0,0.26-0.04,0.52-0.12,0.77l0,0
		c-4.12,13.37-17.52,24.7-37.85,24.7c-29.06,0-43.13-21.8-43.13-45.27c0-25.87,15.36-45.27,42.57-45.27
		c22.4,0,39.98,16.82,39.98,38.81c0,2.34,0,5.39-0.46,9.31l0,0l0,0c-0.22,1.86-1.79,3.26-3.66,3.26l-57.88,0
		c0.19,12.38,6.29,22.36,22.58,22.36c9.68,0,14.23-3.68,16.97-8.5c0.06-0.1,0.11-0.2,0.18-0.32l0,0
		C144.52,313.74,146.09,312.8,147.81,312.8z M125.46,267.16c-10.93,0-19.81,5.82-21.12,17.47l0,0l0,0c-0.17,1.5,0.91,2.86,2.42,3.03
		c0.1,0.01,0.2,0.02,0.31,0.02h36.42c1.51,0,2.74-1.23,2.74-2.74c0-0.1-0.01-0.21-0.02-0.31l0,0
		C144.93,273.55,136.68,267.16,125.46,267.16z"/>
</g>
</svg>
